<mxfile host="app.diagrams.net" modified="2022-02-02T17:50:37.455Z" agent="5.0 (Windows NT 10.0; Win64; x64) AppleWebKit/537.36 (KHTML, like Gecko) Chrome/97.0.4692.99 Safari/537.36" etag="2Ae24ImTh9d_4fAf_Msx" version="16.5.2" type="github">
  <diagram id="0MR-DqhOu1Qrcg0xRPWL" name="第 1 页">
    <mxGraphModel dx="1038" dy="664" grid="1" gridSize="10" guides="1" tooltips="1" connect="1" arrows="1" fold="1" page="1" pageScale="1" pageWidth="827" pageHeight="1169" math="0" shadow="0">
      <root>
        <mxCell id="0" />
        <mxCell id="1" parent="0" />
        <mxCell id="Sw4u4-2YJBOPYns61W6--9" value="" style="edgeStyle=orthogonalEdgeStyle;rounded=0;orthogonalLoop=1;jettySize=auto;html=1;" edge="1" parent="1" source="Sw4u4-2YJBOPYns61W6--1" target="Sw4u4-2YJBOPYns61W6--7">
          <mxGeometry relative="1" as="geometry" />
        </mxCell>
        <mxCell id="Sw4u4-2YJBOPYns61W6--1" value="计算入度&lt;br&gt;" style="ellipse;whiteSpace=wrap;html=1;" vertex="1" parent="1">
          <mxGeometry x="354" y="110" width="120" height="60" as="geometry" />
        </mxCell>
        <mxCell id="Sw4u4-2YJBOPYns61W6--11" value="" style="edgeStyle=orthogonalEdgeStyle;rounded=0;orthogonalLoop=1;jettySize=auto;html=1;" edge="1" parent="1" source="Sw4u4-2YJBOPYns61W6--7" target="Sw4u4-2YJBOPYns61W6--10">
          <mxGeometry relative="1" as="geometry" />
        </mxCell>
        <mxCell id="Sw4u4-2YJBOPYns61W6--24" value="" style="edgeStyle=orthogonalEdgeStyle;rounded=0;orthogonalLoop=1;jettySize=auto;html=1;" edge="1" parent="1" source="Sw4u4-2YJBOPYns61W6--7" target="Sw4u4-2YJBOPYns61W6--23">
          <mxGeometry relative="1" as="geometry" />
        </mxCell>
        <mxCell id="Sw4u4-2YJBOPYns61W6--7" value="队列中有入度为0的节点" style="rhombus;whiteSpace=wrap;html=1;" vertex="1" parent="1">
          <mxGeometry x="314" y="240" width="200" height="90" as="geometry" />
        </mxCell>
        <mxCell id="Sw4u4-2YJBOPYns61W6--15" value="" style="edgeStyle=orthogonalEdgeStyle;rounded=0;orthogonalLoop=1;jettySize=auto;html=1;" edge="1" parent="1" source="Sw4u4-2YJBOPYns61W6--10" target="Sw4u4-2YJBOPYns61W6--14">
          <mxGeometry relative="1" as="geometry" />
        </mxCell>
        <mxCell id="Sw4u4-2YJBOPYns61W6--10" value="去除与其他节点的关系" style="whiteSpace=wrap;html=1;" vertex="1" parent="1">
          <mxGeometry x="703" y="400" width="120" height="60" as="geometry" />
        </mxCell>
        <mxCell id="Sw4u4-2YJBOPYns61W6--19" value="" style="edgeStyle=orthogonalEdgeStyle;rounded=0;orthogonalLoop=1;jettySize=auto;html=1;" edge="1" parent="1" source="Sw4u4-2YJBOPYns61W6--14" target="Sw4u4-2YJBOPYns61W6--18">
          <mxGeometry relative="1" as="geometry" />
        </mxCell>
        <mxCell id="Sw4u4-2YJBOPYns61W6--20" style="edgeStyle=orthogonalEdgeStyle;rounded=0;orthogonalLoop=1;jettySize=auto;html=1;entryX=0;entryY=0.5;entryDx=0;entryDy=0;" edge="1" parent="1" source="Sw4u4-2YJBOPYns61W6--14" target="Sw4u4-2YJBOPYns61W6--10">
          <mxGeometry relative="1" as="geometry">
            <Array as="points">
              <mxPoint x="670" y="585" />
              <mxPoint x="670" y="430" />
            </Array>
          </mxGeometry>
        </mxCell>
        <mxCell id="Sw4u4-2YJBOPYns61W6--14" value="&lt;span&gt;查看是否有入度为0的&lt;/span&gt;" style="rhombus;whiteSpace=wrap;html=1;" vertex="1" parent="1">
          <mxGeometry x="690" y="545" width="146" height="80" as="geometry" />
        </mxCell>
        <mxCell id="Sw4u4-2YJBOPYns61W6--18" value="添加到队列中" style="whiteSpace=wrap;html=1;" vertex="1" parent="1">
          <mxGeometry x="929" y="555" width="120" height="60" as="geometry" />
        </mxCell>
        <mxCell id="Sw4u4-2YJBOPYns61W6--23" value="程序结束" style="ellipse;whiteSpace=wrap;html=1;" vertex="1" parent="1">
          <mxGeometry x="354" y="425" width="120" height="60" as="geometry" />
        </mxCell>
      </root>
    </mxGraphModel>
  </diagram>
</mxfile>
